<svg id="Layer_2" data-name="Layer 2" xmlns="http://www.w3.org/2000/svg" viewBox="0 0 465 196"><defs><style>.cls-1{fill:#ff0060}</style></defs><title>Artboard 1</title><path d="M14.2 150.1a3.73 3.73 0 0 1 5.67-.56c5.63 5.52 18.47 16.2 33.72 16.2 12.6 0 23.14-4 23.14-12.29 0-8.86-5.66-10.57-24.17-14.86-24.17-5.71-45.25-17.14-45.25-42.85 0-21.14 19-42.28 52.46-42.28 21.3 0 37.06 9.94 43.08 14.42a3.74 3.74 0 0 1 1 5L92.24 91.69a3.74 3.74 0 0 1-5.31 1.12c-5-3.42-15.44-9.36-27.16-9.36-11.57 0-22.11 4.57-22.11 12.86s8.23 10.29 28.8 15.14c24.17 5.71 41.4 14.57 41.4 42.57 0 23.14-22.11 41.71-53.23 41.71a73.83 73.83 0 0 1-53-22.29 3.72 3.72 0 0 1-.35-4.69zm295.24-44.93v83.4a3.74 3.74 0 0 1-3.74 3.74h-23.38a3.74 3.74 0 0 1-3.74-3.74V114c0-18.57-6.43-28.57-21.86-28.57-14.07 0-21.74 13.15-23.51 16.6a3.67 3.67 0 0 0-.4 1.69v84.82a3.74 3.74 0 0 1-3.74 3.74H205.7a3.74 3.74 0 0 1-3.74-3.74V114c0-18.57-6.43-28.57-21.86-28.57-14.07 0-21.74 13.15-23.51 16.6a3.67 3.67 0 0 0-.4 1.69v84.82a3.74 3.74 0 0 1-3.74 3.74h-23.38a3.74 3.74 0 0 1-3.74-3.74V60.62a3.74 3.74 0 0 1 3.74-3.74h21.32a3.74 3.74 0 0 1 3.74 3.74v4.14a3.73 3.73 0 0 0 6.5 2.52c5.74-6.43 15.4-13.83 29.5-13.83 20 0 30.34 11.08 34.86 18.09a3.71 3.71 0 0 0 6.17.15 42.38 42.38 0 0 1 35.59-18.25c24.69.02 42.69 19.16 42.69 51.73z"/><circle cx="358.6" cy="171.54" r="20.56"/><path class="cls-1" d="M395.48 94.31l-8-6.15a5.38 5.38 0 0 1-1.22-7.34l12.15-17.87a5.43 5.43 0 0 0-2.85-8.21l-19.37-6.58a5.46 5.46 0 0 1-3.54-6.8l3.31-10.45a5.7 5.7 0 0 1 7.36-3.54l17.41 6.21a5.64 5.64 0 0 0 7.61-5.16V6.62A5.58 5.58 0 0 1 414 1.13h9.43a5.58 5.58 0 0 1 5.66 5.49v21.8a5.64 5.64 0 0 0 7.61 5.16l17.41-6.21a5.7 5.7 0 0 1 7.36 3.54l3.31 10.45a5.46 5.46 0 0 1-3.54 6.8l-19.37 6.58a5.43 5.43 0 0 0-2.87 8.2l12.16 17.87a5.38 5.38 0 0 1-1.22 7.34l-8 6.15a5.76 5.76 0 0 1-8.29-1.37l-10.19-15.51a5.75 5.75 0 0 0-9.56 0l-10.14 15.52a5.76 5.76 0 0 1-8.28 1.37z"/></svg>