<svg id="Layer_1" xmlns="http://www.w3.org/2000/svg" viewBox="0 0 600 600"><style>.st0{fill:#ff0060}.st1{fill:url(#SVGID_1_)}.st1,.st2{display:none}.st3{display:inline}.st3,.st4{fill:#fff}</style><g id="Layer_2"><circle class="st0" cx="300" cy="300" r="300"/><linearGradient id="SVGID_1_" gradientUnits="userSpaceOnUse" x1="300" y1="600" x2="300"><stop offset="0" stop-color="#ff2463"/><stop offset=".98" stop-color="#ff0049"/></linearGradient><path class="st1" d="M0 0h600v600H0z"/><g class="st2"><path class="st3" d="M179.3 453c39.1 19.6 82.4 26.8 124 19.2 41.6-7.6 79.6-27.8 104.1-59s30.8-67.3 21.2-100.6-35-63.7-74.1-83.3"/><path class="st3" d="M420.7 147c-39.1-19.6-82.4-26.8-124-19.2-41.6 7.6-79.6 27.8-104.1 59s-30.8 67.3-21.2 100.6c9.6 33.3 35 63.7 74.1 83.3"/></g><path class="st4" d="M420.7 147c-39.1-19.6-82.4-26.8-124-19.2-41.6 7.6-79.6 27.8-104.1 59s-30.8 67.3-21.2 100.6c9.6 33.3 35 63.7 74.1 83.3L179.3 453c39.1 19.6 82.4 26.8 124 19.2 41.6-7.6 79.6-27.8 104.1-59s30.8-67.3 21.2-100.6-35-63.7-74.1-83.3"/></g></svg>