<svg fill="none" height="479" viewBox="0 0 580 479" width="580" xmlns="http://www.w3.org/2000/svg" xmlns:xlink="http://www.w3.org/1999/xlink"><clipPath id="a"><path d="m0 0h580v479h-580z"/></clipPath><mask id="b" height="104" maskUnits="userSpaceOnUse" width="104" x="277" y="154"><circle cx="329.058" cy="205.804" fill="#ffc700" r="51.4409"/></mask><g clip-path="url(#a)"><path d="m-6.65999-9.14574h35.9341v290.35h-35.9341z" stroke="#ff9abe" stroke-width="16" transform="matrix(.155359 -.987858 -.987858 -.155359 475.482 161.079)"/><path d="m444.104 323.224c46.606-9.308 76.842-54.636 67.534-101.242l-168.777 33.709c9.309 46.606 54.637 76.842 101.243 67.533z" fill="#fff"/><circle cx="379.312" cy="482.104" r="125.586" stroke="#ff9abe" stroke-width="72"/><path d="m0 0h91.7583v312.609h-91.7583z" fill="#3290ff" transform="matrix(-.893904 -.448258 -.448258 .893904 311.783 255.097)"/><circle cx="445.945" cy="98.7866" fill="#fff" r="19.4138"/><g mask="url(#b)"><circle cx="329.058" cy="205.804" fill="#ffc700" r="51.4409"/><g stroke="#fff" stroke-width="8"><path d="m268.404 191.76s32.364 37.954 72.001 27.144c39.636-10.81 43.822 6.948 43.822 6.948"/><path d="m269.404 169.081s34.839 40.68 71.12 30.785c36.281-9.894 44.703 3.307 44.703 3.307"/><path d="m270.32 138.035s28.072 50.163 70.204 41.831 44.703 3.307 44.703 3.307"/><path d="m268.404 210.999s29.949 38.582 71.016 26.378c41.066-12.205 41.066 13.593 41.066 13.593"/></g></g></g></svg>
