<?xml version="1.0" encoding="utf-8"?>
<!-- Generator: Adobe Illustrator 21.1.0, SVG Export Plug-In . SVG Version: 6.00 Build 0)  -->
<svg version="1.1" xmlns="http://www.w3.org/2000/svg" xmlns:xlink="http://www.w3.org/1999/xlink" x="0px" y="0px"
	 viewBox="0 0 600 600" enable-background="new 0 0 600 600" xml:space="preserve">
<g id="Layer_1" display="none">
	<g display="inline">
		<path fill="#FF0060" d="M491.5,289.1c51.6,73.8,33.6,175.4-40.2,227s-175.4,33.6-227-40.2S53,103.5,126.7,51.9
			S439.9,215.3,491.5,289.1z"/>
	</g>
	
		<ellipse transform="matrix(0.8196 -0.573 0.573 0.8196 -157.4574 277.7863)" display="inline" fill="#FFFFFF" cx="362.3" cy="388.9" rx="80" ry="80"/>
</g>
<g id="Layer_2">
	<g>
		<circle fill="#FF0060" cx="300" cy="300" r="256"/>
		<g>
			<path fill="#FFFFFF" d="M203.4,438c33.8,15.7,72.3,18.7,107.1,10.9s65.9-26.4,85.2-53.9s23-58.8,13.4-87.1s-32.4-53.7-66.3-69.3
				l53.8-76.5c-33.8-15.7-72.3-18.7-107.1-10.9c-34.8,7.8-65.9,26.4-85.2,53.9s-23,58.8-13.4,87.1s32.4,53.7,66.3,69.3"/>
		</g>
	</g>
	<g>
	</g>
	<g>
	</g>
	<g>
	</g>
	<g>
	</g>
	<g>
	</g>
	<g>
	</g>
	<g>
	</g>
	<g>
	</g>
	<g>
	</g>
	<g>
	</g>
	<g>
	</g>
	<g>
	</g>
	<g>
	</g>
	<g>
	</g>
	<g>
	</g>
</g>
</svg>
