<?xml version="1.0" encoding="utf-8"?>
<!-- Generator: Adobe Illustrator 21.1.0, SVG Export Plug-In . SVG Version: 6.00 Build 0)  -->
<svg version="1.1" id="Layer_1" xmlns="http://www.w3.org/2000/svg" xmlns:xlink="http://www.w3.org/1999/xlink" x="0px" y="0px"
	 viewBox="0 0 600 600" style="enable-background:new 0 0 600 600;" xml:space="preserve">
<style type="text/css">
	.st0{fill:#FF0060;}
	.st1{display:none;fill:url(#SVGID_1_);}
	.st2{display:none;}
	.st3{display:inline;fill:#FFFFFF;}
	.st4{fill:#FFFFFF;}
</style>
<g id="Layer_2">
	<g>
		<circle class="st0" cx="300" cy="300" r="300"/>
		<linearGradient id="SVGID_1_" gradientUnits="userSpaceOnUse" x1="300" y1="600" x2="300" y2="-9.094947e-13">
			<stop  offset="0" style="stop-color:#FF2463"/>
			<stop  offset="0.98" style="stop-color:#FF0049"/>
		</linearGradient>
		<rect class="st1" width="600" height="600"/>
		<g class="st2">
			<path class="st3" d="M179.3,453c39.1,19.6,82.4,26.8,124,19.2c41.6-7.6,79.6-27.8,104.1-59c24.5-31.2,30.8-67.3,21.2-100.6
				s-35-63.7-74.1-83.3"/>
			<path class="st3" d="M420.7,147c-39.1-19.6-82.4-26.8-124-19.2c-41.6,7.6-79.6,27.8-104.1,59s-30.8,67.3-21.2,100.6
				c9.6,33.3,35,63.7,74.1,83.3"/>
		</g>
		<g>
			<path class="st4" d="M420.7,147c-39.1-19.6-82.4-26.8-124-19.2c-41.6,7.6-79.6,27.8-104.1,59s-30.8,67.3-21.2,100.6
				c9.6,33.3,35,63.7,74.1,83.3L179.3,453c39.1,19.6,82.4,26.8,124,19.2c41.6-7.6,79.6-27.8,104.1-59
				c24.5-31.2,30.8-67.3,21.2-100.6s-35-63.7-74.1-83.3"/>
		</g>
	</g>
</g>
</svg>
