<svg width="600" height="600" viewBox="0 0 600 600" fill="none" xmlns="http://www.w3.org/2000/svg">
<g clip-path="url(#clip0)">
<path d="M446.804 723.508C275.756 790.834 81.8798 707.687 12.5993 537.972C11.6184 535.766 12.7426 533.182 14.9868 532.299L90.0215 502.765C90.0215 502.765 90.7128 504.521 91.5961 506.765C143.709 632.864 288.067 694.708 415.695 644.473C543.322 594.237 606.797 450.589 558.939 322.702C558.094 320.556 557.364 318.702 557.364 318.702L632.399 289.168C634.545 288.323 637.091 289.349 638.012 291.691C702.94 463.232 617.851 656.182 446.804 723.508Z" fill="#FF4641"/>
<path d="M90.0215 502.765C39.2102 373.674 102.639 227.903 231.729 177.092C360.82 126.28 506.591 189.709 557.403 318.799L90.0215 502.765Z" fill="#CAE2E2"/>
<path d="M557.403 318.799C608.214 447.89 544.785 593.661 415.695 644.473C286.604 695.284 140.833 631.855 90.0215 502.765L557.403 318.799Z" fill="#232D41"/>
</g>
<defs>
<clipPath id="clip0">
<rect width="600" height="600" fill="white"/>
</clipPath>
</defs>
</svg>
