<svg width="580" height="479" viewBox="0 0 580 479" fill="none" xmlns="http://www.w3.org/2000/svg">
<g clip-path="url(#clip0)">
<rect x="-6.65999" y="-9.14574" width="35.9341" height="290.35" transform="matrix(0.155359 -0.987858 -0.987858 -0.155359 475.482 161.079)" stroke="#FF9ABE" stroke-width="16"/>
<path d="M444.104 323.224C490.71 313.916 520.946 268.588 511.638 221.982L342.861 255.691C352.17 302.297 397.498 332.533 444.104 323.224Z" fill="white"/>
<circle cx="379.312" cy="482.104" r="125.586" stroke="#FF9ABE" stroke-width="72"/>
<rect width="91.7583" height="312.609" transform="matrix(-0.893904 -0.448258 -0.448258 0.893904 311.783 255.097)" fill="#3290FF"/>
<circle cx="445.945" cy="98.7866" r="19.4138" fill="white"/>
<mask id="mask0" mask-type="alpha" maskUnits="userSpaceOnUse" x="277" y="154" width="104" height="104">
<circle cx="329.058" cy="205.804" r="51.4409" fill="#FFC700"/>
</mask>
<g mask="url(#mask0)">
<circle cx="329.058" cy="205.804" r="51.4409" fill="#FFC700"/>
<path d="M268.404 191.76C268.404 191.76 300.768 229.714 340.405 218.904C380.041 208.094 384.227 225.852 384.227 225.852" stroke="white" stroke-width="8"/>
<path d="M269.404 169.081C269.404 169.081 304.243 209.761 340.524 199.866C376.805 189.972 385.227 203.173 385.227 203.173" stroke="white" stroke-width="8"/>
<path d="M270.32 138.035C270.32 138.035 298.392 188.198 340.524 179.866C382.656 171.534 385.227 183.173 385.227 183.173" stroke="white" stroke-width="8"/>
<path d="M268.404 210.999C268.404 210.999 298.353 249.581 339.42 237.377C380.486 225.172 380.486 250.97 380.486 250.97" stroke="white" stroke-width="8"/>
</g>
</g>
<defs>
<clipPath id="clip0">
<rect width="580" height="479" fill="white"/>
</clipPath>
</defs>
</svg>
